Coordinates
version=1
nRows=6
nColumns=107
inDegrees=yes

Units are S.I. units (second, meters, Newtons, ...)
If the header above contains a line with 'inDegrees', this indicates whether rotational values are in degrees (yes) or radians (no).

endheader
time	sternoclavicular_r2	sternoclavicular_r3	unrotscap_r3	unrotscap_r2	acromioclavicular_r2	acromioclavicular_r3	acromioclavicular_r1	unrothum_r1	unrothum_r3	unrothum_r2	elv_angle	shoulder_elv	shoulder1_r2	shoulder_rot	elbow_flexion	pro_sup	deviation	flexion	proximal_distal_r1	proximal_distal_r3	cmc_flexion	cmc_abduction	mp_flexion	ip_flexion	mcp2_flexion	mcp2_abduction	pm2_flexion	md2_flexion	mcp3_flexion	mcp3_abduction	pm3_flexion	md3_flexion	mcp4_flexion	mcp4_abduction	pm4_flexion	md4_flexion	mcp5_flexion	mcp5_abduction	pm5_flexion	md5_flexion	bicpt_tx	bicpt_ty	bicpt_tz	bicpt2_tx	bicpt2_ty	bicpt2_tz	ptpt_tx	ptpt_ty	ptpt_tz	FCUpt_tx	FCUpt_ty	FCUpt_tz	EDCpt_tx	EDCpt_ty	EDCpt_tz	APLpt_tx	APLpt_ty	APLpt_tz	FPLpt_tx	FPLpt_ty	FPLpt_tz	FPLpt2_tx	FPLpt2_ty	FPLpt2_tz	PEC1pt2_tx	PEC1pt2_ty	PEC1pt2_tz	PEC1pt3_tx	PEC1pt3_ty	PEC1pt3_tz	PEC2pt2_tx	PEC2pt2_ty	PEC2pt2_tz	PEC2pt3_tx	PEC2pt3_ty	PEC2pt3_tz	PEC3pt2_tx	PEC3pt2_ty	PEC3pt2_tz	PEC3pt3_tx	PEC3pt3_ty	PEC3pt3_tz	DELT2pt2a_tx	DELT2pt2a_ty	DELT2pt2a_tz	DELT2pt2_tx	DELT2pt2_ty	DELT2pt2_tz	LAT1pt2_tx	LAT1pt2_ty	LAT1pt2_tz	LAT1pt3_tx	LAT1pt3_ty	LAT1pt3_tz	LAT2pt2_tx	LAT2pt2_ty	LAT2pt2_tz	LAT2pt3_tx	LAT2pt3_ty	LAT2pt3_tz	LAT3pt2_tx	LAT3pt2_ty	LAT3pt2_tz	LAT3pt3_tx	LAT3pt3_ty	LAT3pt3_tz
      0.93333333	     -0.32445108	      0.13742216	     -0.13742216	      0.32445108	     -0.06569474	      0.53092181	      0.23864570	     -0.23864570	     -0.53092181	      0.06569474	     98.66595219	     76.81667675	     -1.72204573	    -21.35191336	     29.11798766	     39.88113958	      0.24755557	     -0.28571363	      0.28580659	     -0.14285681	     11.18985728	      0.19812312	    -14.26496331	    -13.10123532	     -3.42540650	     12.22962841	     20.13212856	    -10.74972039	     28.50241617	     10.24184762	     41.41245313	     27.67988000	     32.42949342	      0.00697942	     37.53110261	     25.18587686	     14.91075113	    -13.84116181	      1.20379531	      5.11460608	      0.00086313	     -0.03093737	     -0.00483756	      0.01657417	     -0.01811004	     -0.00748271	      0.00460323	     -0.06680543	     -0.00326264	      0.00776827	     -0.18349753	     -0.00038557	     -0.00478573	      0.00137541	      0.00014727	      0.00022396	      0.00008958	      0.00044792	      0.00028667	      0.00086001	      0.00048376	      0.00003103	     -0.00021018	     -0.00025222	      0.00251788	      0.00883393	      0.00614534	     -0.00823646	      0.01988700	     -0.01886278	      0.00251788	      0.00883393	      0.00614534	      0.00055479	      0.01843602	     -0.00968744	      0.00397246	      0.00491243	      0.01602726	      0.00000000	      0.00789247	      0.00000000	     -0.00721224	     -0.03332993	     -0.00650832	      0.01454416	     -0.00047382	     -0.00378178	     -0.00089620	      0.01502194	     -0.00614534	      0.00247521	      0.02167939	     -0.01792391	     -0.00601731	      0.01301617	     -0.00550520	     -0.01254673	      0.02748332	     -0.03076937	     -0.02355713	      0.01455250	     -0.00738294	     -0.01561940	      0.03175092	     -0.03845105
      0.96666667	     -0.32541157	      0.13782898	     -0.13782898	      0.32541157	     -0.06588922	      0.53249353	      0.23935218	     -0.23935218	     -0.53249353	      0.06588922	     98.49014314	     77.04408199	     -1.71897728	    -20.38013159	     29.02220386	     40.32788801	      0.26202773	     -0.25735350	      0.29941108	     -0.12867675	     13.97725069	     -1.05067239	    -11.99692613	    -13.37179233	     -0.98740824	     12.18190617	     22.66744368	    -10.74679074	     25.94510234	      9.08449811	     34.79006728	     26.37082083	     29.24180920	     -0.82953207	     31.64550792	     26.04834808	     16.07834965	    -13.81608713	      3.65105593	      5.14701671	      0.00085996	     -0.03092639	     -0.00483579	      0.01657492	     -0.01808402	     -0.00743496	      0.00457022	     -0.06682677	     -0.00329863	      0.00781326	     -0.18348823	     -0.00038871	     -0.00483934	      0.00139360	      0.00014404	      0.00020785	      0.00008314	      0.00041570	      0.00026605	      0.00079815	      0.00044896	      0.00002596	     -0.00024092	     -0.00028910	      0.00252534	      0.00886008	      0.00616353	     -0.00826084	      0.01994587	     -0.01891862	      0.00252534	      0.00886008	      0.00616353	      0.00055643	      0.01849060	     -0.00971612	      0.00398100	      0.00492698	      0.01604789	      0.00000000	      0.00793960	      0.00000000	     -0.00723359	     -0.03342860	     -0.00654745	      0.01399469	     -0.00044364	     -0.00343122	     -0.00089885	      0.01506641	     -0.00616353	      0.00248253	      0.02174357	     -0.01797697	     -0.00603512	      0.01305470	     -0.00552150	     -0.01258388	      0.02756468	     -0.03086046	     -0.02362687	      0.01459559	     -0.00740480	     -0.01566564	      0.03184491	     -0.03856488
      1.00000000	     -0.32507145	      0.13768493	     -0.13768493	      0.32507145	     -0.06582036	      0.53193697	      0.23910201	     -0.23910201	     -0.53193697	      0.06582036	     98.67619010	     76.96355641	     -1.72222441	    -20.79632105	     28.76301592	     40.81428938	      0.26702470	     -0.25703050	      0.30402886	     -0.12851525	     16.61937881	     -1.21044011	    -11.04765588	    -13.00068835	      2.86569119	     12.31134474	     24.18101025	    -10.14815576	     22.20325362	      8.23864426	     33.01850225	     25.77921668	     25.63549122	     -1.54880788	     29.62768789	     25.40162572	     17.08468507	    -13.81217543	      4.07614414	      5.25358023	      0.00085139	     -0.03089668	     -0.00483101	      0.01657517	     -0.01801361	     -0.00738264	      0.00453428	     -0.06685001	     -0.00333781	      0.00786232	     -0.18347803	     -0.00039195	     -0.00489770	      0.00141347	      0.00014040	      0.00020765	      0.00008306	      0.00041530	      0.00026579	      0.00079738	      0.00044853	      0.00002006	     -0.00026204	     -0.00031445	      0.00252270	      0.00885082	      0.00615709	     -0.00825221	      0.01992503	     -0.01889884	      0.00252270	      0.00885082	      0.00615709	      0.00055585	      0.01847127	     -0.00970597	      0.00397798	      0.00492183	      0.01604060	      0.00000000	      0.00792289	      0.00000000	     -0.00722603	     -0.03339366	     -0.00653358	      0.01423153	     -0.00045652	     -0.00357960	     -0.00089791	      0.01505066	     -0.00615709	      0.00247994	      0.02172084	     -0.01795818	     -0.00602882	      0.01304106	     -0.00551573	     -0.01257072	      0.02753587	     -0.03082821	     -0.02360218	      0.01458033	     -0.00739706	     -0.01564927	      0.03181163	     -0.03852457
      1.03333333	     -0.32496973	      0.13764184	     -0.13764184	      0.32496973	     -0.06579976	      0.53177051	      0.23902718	     -0.23902718	     -0.53177051	      0.06579976	     98.51213621	     76.93947142	     -1.71936113	    -20.86613780	     29.18622143	     42.24686402	      0.29082919	     -0.18293901	      0.32546555	     -0.09146951	     19.16465596	     -3.04737504	    -11.82361099	    -11.20904164	      4.64409244	     11.93809296	     25.53471248	     -8.39167921	     20.21289903	      6.91578615	     26.46007803	     21.61035775	     23.49307450	     -1.79952200	     23.05816533	     21.89245227	     16.36441518	    -13.84322697	      6.04115152	      5.20297815	      0.00086539	     -0.03094519	     -0.00483882	      0.01657284	     -0.01812858	     -0.00722664	      0.00442843	     -0.06691846	     -0.00345321	      0.00800723	     -0.18344761	     -0.00040047	     -0.00506961	      0.00147242	      0.00012893	      0.00015915	      0.00006366	      0.00031831	      0.00020372	      0.00061115	      0.00034377	      0.00001388	     -0.00027507	     -0.00033008	      0.00252191	      0.00884805	      0.00615516	     -0.00824963	      0.01991879	     -0.01889293	      0.00252191	      0.00884805	      0.00615516	      0.00055567	      0.01846549	     -0.00970293	      0.00397707	      0.00492029	      0.01603842	      0.00000000	      0.00791790	      0.00000000	     -0.00722377	     -0.03338321	     -0.00652944	      0.01427109	     -0.00045868	     -0.00360469	     -0.00089763	      0.01504595	     -0.00615516	      0.00247916	      0.02171405	     -0.01795256	     -0.00602693	      0.01303698	     -0.00551400	     -0.01256679	      0.02752726	     -0.03081856	     -0.02359479	      0.01457577	     -0.00739474	     -0.01564437	      0.03180168	     -0.03851251
      1.06666667	     -0.32000432	      0.13553873	     -0.13553873	      0.32000432	     -0.06479437	      0.52364527	      0.23537495	     -0.23537495	     -0.52364527	      0.06479437	     99.57415883	     75.76386785	     -1.73789692	    -26.91521313	     29.80246751	     49.49504164	      0.29082763	     -0.10663508	      0.32546491	     -0.05331754	     21.91163285	     -4.26132399	    -12.48528706	    -10.79236766	      5.23550558	     11.94087892	     26.79128651	     -6.93272429	     16.57666358	      6.37132707	     24.35053103	     20.71649817	     21.70937685	     -1.76962356	     17.52248415	     22.44444504	     15.59609347	    -13.82123745	      7.26370275	      5.19652929	      0.00088577	     -0.03101582	     -0.00485020	      0.01648903	     -0.01829599	     -0.00639322	      0.00389287	     -0.06726476	     -0.00403709	      0.00875010	     -0.18328475	     -0.00041988	     -0.00593939	      0.00178040	      0.00005383	      0.00009975	      0.00003990	      0.00019950	      0.00012768	      0.00038303	      0.00021546	      0.00000718	     -0.00028114	     -0.00033737	      0.00248337	      0.00871285	      0.00606111	     -0.00812358	      0.01961444	     -0.01860425	      0.00248337	      0.00871285	      0.00606111	      0.00054718	      0.01818334	     -0.00955467	      0.00393265	      0.00484511	      0.01593015	      0.00000000	      0.00767612	      0.00000000	     -0.00711339	     -0.03287313	     -0.00632872	      0.01744703	     -0.00065322	     -0.00605627	     -0.00088391	      0.01481606	     -0.00606111	      0.00244128	      0.02138227	     -0.01767825	     -0.00593484	      0.01283778	     -0.00542975	     -0.01237478	      0.02710665	     -0.03034766	     -0.02323427	      0.01435306	     -0.00728176	     -0.01540533	      0.03131576	     -0.03792406
      1.10000000	     -0.31983105	      0.13546534	     -0.13546534	      0.31983105	     -0.06475928	      0.52336173	      0.23524750	     -0.23524750	     -0.52336173	      0.06475928	     99.71748838	     75.72284298	     -1.74039849	    -27.14517832	     29.56769539	     49.74924416	      0.30169327	     -0.11212670	      0.33494166	     -0.05606335	     23.56856889	     -4.62147347	    -11.82680155	    -10.57090210	      7.75074224	     12.06558582	     27.80932326	     -6.55962495	     14.31964407	      5.78419897	     23.37789200	     20.41338866	     19.44677255	     -1.79665500	     16.51494736	     22.15798089	     15.85427963	    -13.89225405	      7.29510270	      5.20992024	      0.00087801	     -0.03098891	     -0.00484586	      0.01648390	     -0.01823221	     -0.00636265	      0.00387409	     -0.06727690	     -0.00405757	      0.00877645	     -0.18327876	     -0.00041984	     -0.00596990	      0.00179150	      0.00005067	      0.00010419	      0.00004168	      0.00020839	      0.00013337	      0.00040010	      0.00022506	      0.00000335	     -0.00028068	     -0.00033681	      0.00248203	      0.00870813	      0.00605783	     -0.00811918	      0.01960382	     -0.01859418	      0.00248203	      0.00870813	      0.00605783	      0.00054689	      0.01817350	     -0.00954950	      0.00393110	      0.00484248	      0.01592634	      0.00000000	      0.00766771	      0.00000000	     -0.00710954	     -0.03285533	     -0.00632175	      0.01755806	     -0.00066086	     -0.00615962	     -0.00088343	      0.01480804	     -0.00605783	      0.00243996	      0.02137069	     -0.01766868	     -0.00593163	      0.01283083	     -0.00542681	     -0.01236807	      0.02709197	     -0.03033123	     -0.02322169	      0.01434528	     -0.00727781	     -0.01539699	      0.03129880	     -0.03790352
